<?xml version="1.0" encoding="UTF-8"?>
<svg version="1.1" xmlns="http://www.w3.org/2000/svg" width="48" height="48">
<path d="M0 0 C3.77971879 1.28367808 5.6324865 2.61314368 8.375 5.5 C10.63716482 10.372355 10.71198622 14.70864788 10 20 C8.4375 22.9375 8.4375 22.9375 7 25 C7.20643199 27.25328412 7.20643199 27.25328412 8 29 C10.64 29 13.28 29 16 29 C16.29254918 33.97333608 16.16504232 37.0436971 13 41 C11.948125 41.495 11.948125 41.495 10.875 42 C9.946875 42.495 9.946875 42.495 9 43 C8.3546766 45.52831992 8.3546766 45.52831992 8 48 C3.8882744 48.02465746 -0.22342278 48.04283959 -4.33520508 48.05493164 C-5.73495228 48.0599708 -7.1346942 48.06680216 -8.53442383 48.07543945 C-10.54245777 48.0875232 -12.55052957 48.09269807 -14.55859375 48.09765625 C-15.76829834 48.10289307 -16.97800293 48.10812988 -18.22436523 48.11352539 C-21 48 -21 48 -22 47 C-22.54551379 42.36313277 -20.90140088 39.16845579 -19 35 C-18.31163487 33.00736409 -17.63718601 31.00958663 -17 29 C-18.918125 29.061875 -18.918125 29.061875 -20.875 29.125 C-23.0546875 29.1953125 -23.0546875 29.1953125 -25 29 C-27 27 -27 27 -27.125 24.375 C-27.08375 23.59125 -27.0425 22.8075 -27 22 C-27.639375 21.71125 -28.27875 21.4225 -28.9375 21.125 C-31 20 -31 20 -32 18 C-32.51675938 14.12430466 -32.31754464 12.47631696 -30.125 9.1875 C-26.33460569 6.53422398 -23.94078629 6.5895755 -19.44140625 6.375 C-15.50595266 5.77051433 -13.76858781 3.76858781 -11 1 C-7.5388228 -0.7305886 -3.79111116 -0.34522766 0 0 Z M-14 7 C-14.33 7.66 -14.66 8.32 -15 9 C-17.77985792 9.35766902 -20.53624208 9.44409433 -23.3359375 9.55859375 C-26.01174079 9.8011126 -26.01174079 9.8011126 -27.87109375 11.3359375 C-29.33237737 13.10819531 -29.33237737 13.10819531 -28.6875 16.1875 C-28.460625 17.115625 -28.23375 18.04375 -28 19 C-25.69 19.33 -23.38 19.66 -21 20 C-21 19.34 -21 18.68 -21 18 C-20.01 18 -19.02 18 -18 18 C-18 18.66 -18 19.32 -18 20 C-14.0507432 19.44894091 -10.65079826 18.61064629 -7 17 C-7 17.99 -7 18.98 -7 20 C-8.98 20.66 -10.96 21.32 -13 22 C-12.34414811 25.60992379 -12.34414811 25.60992379 -11 29 C-11.99 29 -12.98 29 -14 29 C-14.50169415 31.83073436 -14.50169415 31.83073436 -14 35 C-11.11490087 37.42422186 -11.11490087 37.42422186 -8 39 C-5.81509993 36.32357511 -5.81509993 36.32357511 -6 34 C-6.99 34 -7.98 34 -9 34 C-9 31.36 -9 28.72 -9 26 C-8.01 26 -7.02 26 -6 26 C-6.33 27.65 -6.66 29.3 -7 31 C-6.34 31.33 -5.68 31.66 -5 32 C-2.39068734 31.10636395 -2.39068734 31.10636395 0 30 C-2 33 -2 33 -5 35 C-4.34 35 -3.68 35 -3 35 C-3.99 38.3 -4.98 41.6 -6 45 C-2.04 45 1.92 45 6 45 C6.33 43.68 6.66 42.36 7 41 C7.825 40.525625 8.65 40.05125 9.5 39.5625 C12.25461912 38.22232165 12.25461912 38.22232165 12.8125 35.3125 C12.9053125 34.1678125 12.9053125 34.1678125 13 33 C11.906875 32.9175 10.81375 32.835 9.6875 32.75 C6 32 6 32 4 30.25 C2.69674416 27.31767436 2.94715195 26.00813728 4 23 C4.515625 22.4225 5.03125 21.845 5.5625 21.25 C7.84024348 17.68483629 7.66737014 14.10689318 7 10 C4.93240751 6.52939832 2.89055567 4.22274607 -1 3 C-6.68717983 2.36809113 -9.56780967 3.4120364 -14 7 Z M-24 23 C-23.67 23.99 -23.34 24.98 -23 26 C-20.36 26 -17.72 26 -15 26 C-15.33 25.01 -15.66 24.02 -16 23 C-18.64 23 -21.28 23 -24 23 Z M-17 37 C-17.66 39.64 -18.32 42.28 -19 45 C-15.7 45 -12.4 45 -9 45 C-8.67 44.01 -8.34 43.02 -8 42 C-9.12073862 41.16094435 -10.24674547 40.32892169 -11.375 39.5 C-12.00148438 39.0359375 -12.62796875 38.571875 -13.2734375 38.09375 C-14.94094613 36.82161899 -14.94094613 36.82161899 -17 37 Z " fill="#000000" transform="translate(32,0)"/>
<path d="M0 0 C1.98 0.495 1.98 0.495 4 1 C4 2.32 4 3.64 4 5 C2.35 5 0.7 5 -1 5 C-0.67 3.35 -0.34 1.7 0 0 Z " fill="#000000" transform="translate(26,8)"/>
</svg>
